<svg xmlns="http://www.w3.org/2000/svg" viewBox="0 0 297.89999 295.60001">
  <title>cityscapetile</title>
  <g id="Layer_2" data-name="Layer 2">
    <g id="Layer_1-2" data-name="Layer 1">
      <polygon points="291.202 109.9 291.602 73.3 278.102 73.3 278.102 20 270.002 20 270.002 31.3 262.102 31.3 262.102 41.7 254.202 41.7 254.202 95 248.002 95 248.002 70.2 245.802 70.2 245.802 67.4 231.502 67.4 231.502 70.2 229.302 70.2 229.302 122 224.802 122 224.802 55.5 222.702 55.5 222.702 52.7 208.302 52.7 208.302 55.5 206.302 55.5 206.302 93.9 201.402 93.9 201.402 70.2 199.202 70.2 199.202 67.4 184.902 67.4 184.902 70.2 182.702 70.2 182.702 78.9 178.002 88.8 178.002 105.1 172.002 105.1 172.002 95 168.802 95 168.802 70.2 157.202 70.2 157.202 55.5 152.202 47.1 152.202 23.4 147.002 23.4 147.002 0 145.902 0 145.902 23.4 140.602 23.4 140.602 113.6 133.702 113.6 133.702 85.7 130.102 85.7 130.102 78.9 122.202 85.7 120.302 85.7 120.302 69.1 110.902 44.8 101.302 69.1 101.302 126 96.902 126 96.902 137 90.502 137 90.502 91.9 85.002 91.9 85.202 73.3 78.802 73.3 78.802 67.9 72.502 67.9 71.602 35.5 70.602 67.9 69.402 67.9 69.402 73.3 67.702 73.3 68.302 123.2 67.102 123.2 67.102 101.2 54.002 85.7 54.002 113.6 40.802 113.6 40.802 91.9 32.702 91.9 32.702 78.9 18.902 98.4 18.902 78.9 0.202 105.1 0.202 295.6 14.002 295.6 18.902 295.6 32.102 295.6 32.702 295.6 40.802 295.6 54.002 295.6 67.102 295.6 69.902 295.6 81.602 295.6 83.102 295.6 89.602 295.6 90.502 295.6 101.302 295.6 108.502 295.6 120.302 295.6 133.702 295.6 140.602 295.6 152.202 295.6 157.202 295.6 168.802 295.6 172.002 295.6 182.702 295.6 188.502 295.6 197.902 295.6 201.402 295.6 206.302 295.6 214.502 295.6 216.502 295.6 224.802 295.6 229.302 295.6 233.102 295.6 248.002 295.6 254.202 295.6 262.102 295.6 270.002 295.6 276.202 295.6 278.102 295.6 287.102 295.6 289.402 295.6 297.502 295.6 297.502 109.9 291.202 109.9" style="fill: #abc3d2"/>
      <polygon points="283.9 160.667 283.9 122.867 261.4 85.767 261.4 165.967 257.1 165.967 257.1 184.567 243.8 184.567 243.8 160.667 230.7 173.967 230.7 192.667 229.1 192.667 230.1 139.267 228.4 139.267 228.4 134.167 226.9 134.167 224.8 134.167 217.8 134.167 217.8 139.267 210.9 139.267 211.3 156.867 205.1 156.867 205.1 204.467 201.3 204.467 201.3 117.767 189.4 91.767 177.4 117.767 177.4 160.667 175.5 160.667 167.6 154.867 167.6 160.667 164 160.667 164 184.567 157.1 184.567 157.1 107.467 145.5 107.467 145.5 127.667 140.5 134.867 140.5 147.467 128.8 147.467 128.8 168.667 125.6 168.667 125.6 177.267 113.7 177.267 113.7 163.367 109.1 154.867 109.1 147.467 106.9 147.467 106.9 144.967 92.6 144.967 92.6 147.467 90.4 147.467 90.4 167.667 87.7 167.667 87.7 130.767 84.9 130.767 84.9 127.667 67.3 127.667 67.3 130.767 64.6 130.767 64.6 191.767 62.3 191.767 62.3 147.467 60.1 147.467 60.1 144.967 45.8 144.967 45.8 147.467 43.6 147.467 43.6 168.667 42.1 168.667 42.1 147.667 31 147.667 31 91.567 31 80.467 21.2 80.467 21.2 68.667 11.2 68.667 11.2 90.567 0 118.967 0 181.367 0 181.367 0 295.567 7.9 295.567 10.4 295.567 21.2 295.567 27.1 295.567 36.9 295.567 43.4 295.567 49.6 295.567 64.5 295.567 68.2 295.567 70.5 295.567 70.5 295.567 93.6 295.567 93.6 295.567 96.3 295.567 99.7 295.567 109.1 295.567 115 295.567 125.6 295.567 128.8 295.567 140.5 295.567 145.5 295.567 157.1 295.567 164 295.567 177.4 295.567 189.2 295.567 201.3 295.567 208.2 295.567 213.2 295.567 214.8 295.567 227.8 295.567 227.9 295.567 230.7 295.567 243.8 295.567 257.1 295.567 261.4 295.567 265.8 295.567 279.2 295.567 283.9 295.567 297.9 295.567 297.9 177.267 283.9 160.667" style="fill: #bfd3e1"/>
    </g>
  </g>
</svg>
