<?xml version="1.0" encoding="utf-8"?>
<!-- Generator: Adobe Illustrator 16.0.0, SVG Export Plug-In . SVG Version: 6.00 Build 0)  -->
<!DOCTYPE svg PUBLIC "-//W3C//DTD SVG 1.1//EN" "http://www.w3.org/Graphics/SVG/1.1/DTD/svg11.dtd">
<svg version="1.1"
	 id="Ebene_1" xmlns:cc="http://creativecommons.org/ns#" xmlns:svg="http://www.w3.org/2000/svg" xmlns:inkscape="http://www.inkscape.org/namespaces/inkscape" xmlns:dc="http://purl.org/dc/elements/1.1/" xmlns:rdf="http://www.w3.org/1999/02/22-rdf-syntax-ns#" xmlns:sodipodi="http://sodipodi.sourceforge.net/DTD/sodipodi-0.dtd" inkscape:version="0.48.1 " sodipodi:docname="Logo della Plymounth.svg"
	 xmlns="http://www.w3.org/2000/svg" xmlns:xlink="http://www.w3.org/1999/xlink" x="0px" y="0px" width="200px" height="200px"
	 viewBox="0 0 200 200" enable-background="new 0 0 200 200" xml:space="preserve">
<sodipodi:namedview  id="namedview24" gridtolerance="10" showgrid="false" pagecolor="#ffffff" inkscape:cy="200" objecttolerance="10" inkscape:zoom="1.2975" inkscape:cx="200" borderopacity="1" bordercolor="#666666" guidetolerance="10" inkscape:window-y="-8" inkscape:current-layer="Ebene_1" inkscape:pageopacity="0" inkscape:window-x="-8" inkscape:pageshadow="2" inkscape:window-width="1280" inkscape:window-height="738" inkscape:window-maximized="1">
	</sodipodi:namedview>
<g id="g3020" transform="matrix(0.70377243,0,0,0.70377494,2.3121388,3.4585739)">
	<path id="path3" d="M-3.285,137.177c0-78.475,63.616-142.091,142.091-142.091c78.474,0,142.091,63.615,142.091,142.091
		c0,78.477-63.618,142.091-142.091,142.091C60.33,279.267-3.285,215.654-3.285,137.177L-3.285,137.177z"/>
	<path id="path5" fill="#FFFFFF" d="M28.503,175.402l-1.502-4.665h8.53c-3.432-10.568-5.287-21.846-5.287-33.561
		c0-59.955,48.606-108.561,108.562-108.561c59.953,0,108.563,48.606,108.563,108.561c0,59.956-48.609,108.561-108.563,108.561
		c-43.065,0-80.273-25.074-97.82-61.421c-2.244-0.727-3.472-0.316-5.93-0.452c-2.457-0.136-4.504-2.731-5.051-4.368l8.809,0.028
		l-1.656-4.143L28.503,175.402L28.503,175.402z"/>
	<path id="path7" fill="#FFFFFF" d="M26.08,102.357l-6.531-2.772l6.214-14.016c0.604-1.469-1.884-2.559-2.424-1.272l-6.278,14.199
		l-2.488-1.09l7.228-16.408c0.68-1.565,2.344-2.206,5.025-0.965c2.682,1.241,3.248,2.304,2.59,4.041l-5.675,12.729l3.947,1.608
		L26.08,102.357L26.08,102.357z"/>
	<polygon id="polygon9" fill="#FFFFFF" points="255.114,78.222 255.114,78.222 256.544,82.076 252.729,83.776 257.322,95.082 
		261.206,93.482 262.791,97.454 251.307,102.282 249.722,98.311 254.833,96.226 250.186,84.734 245.143,86.921 243.575,82.865 	"/>
	<polygon id="polygon11" fill="#FFFFFF" points="236.443,55.159 241.734,61.277 244.224,59.231 230.291,43.856 227.708,45.982 
		233.454,52.001 233.454,52.001 226.291,58.809 229.192,61.961 	"/>
	<path id="path13" fill="#FFFFFF" d="M198.117,20.119l-4.454,6.753c-0.92,1.297-2,4.542,0.844,6.494l13.815,9.284l7.121-11.051
		l-3.502-2.283l-5.38,8.136l-8.119-5.553c-1.303-0.833-1.694-2.093-0.859-3.397l4.121-6.094L198.117,20.119L198.117,20.119z"/>
	<path id="path15" fill="#FFFFFF" d="M103.02,11.31l2.077,12.115l4.327-0.692l-1.817-9.52l4.933-0.779
		c1.212-0.259,2.423,0.432,2.596,1.472l1.211,7.702l4.241-0.693l-1.645-9.518l4.673-0.779c1.298-0.346,2.596,0.432,2.77,1.558
		l1.297,7.703l4.155-0.778l-1.471-8.915c-0.26-1.47-2.77-3.028-4.846-2.682L117.733,8.8c-0.78,0.086-1.039,0.606-1.213,0.952
		c-0.692-0.519-1.557-0.606-2.25-0.433L103.02,11.31L103.02,11.31L103.02,11.31z"/>
	<polygon id="polygon17" fill="#FFFFFF" points="44.328,67.016 34.805,58.269 34.805,58.269 37.61,54.95 44.924,61.552 
		56.042,49.323 58.341,51.549 	"/>
	<path id="path19" fill="#FFFFFF" d="M72.264,33.444l3.45,4.799l3.649-2.668l-3.442-4.708l3.412-2.328
		c1.123-0.901,2.546-3.923,1.495-5.639l-2.558-3.647l-3.561,2.55l1.717,2.256c0.502,0.642,0.633,2.717-0.086,3.315l-6.574,4.52
		c-0.961,0.796-2.65,0.453-3.266-0.44l-1.848-2.677l-3.475,2.54l2.636,3.552c1.093,1.278,3.919,1.676,5.713,0.529L72.264,33.444
		L72.264,33.444z"/>
	<path id="path21" fill="#FFFFFF" d="M157.565,20.828c-2.181-0.453-5.999-0.545-4.546-8.087c0.819-4.453,3.364-5.361,7.998-4.544
		l8.723,1.544c3.817,0.727,6.361,1.817,5.453,7.089c-0.909,5.27-3.544,6.543-7.36,5.815L157.565,20.828L157.565,20.828z"/>
	<path id="path23" d="M158.291,18.103c-1.908-0.364-2.181-1.818-1.728-4.816c0.389-2.555,2.001-2.818,3.545-2.454l9.359,1.728
		c1.544,0.364,2.635,1.544,2.18,3.816c-0.452,2.272-1.635,3.999-3.998,3.453L158.291,18.103L158.291,18.103z"/>
	<path id="path25" d="M214.835,206.496c2.013-2.179,3.523-3.896,5.345-6.241c-22.674-3.286-56.939-6.014-66.358,15.963
		c-7.916-5.87-27.302-6.278-32.353-2.456c-4.641-3.821-20.886-6.416-29.895,0.955c-7.644-7.918-21.16-23.753-44.15-30.072
		c9.09,17.464,23.041,31.995,40.061,41.803c4.089-7.227,20.607-14.051,33.303-5.043c5.597-3.683,23.07-6.414,36.584,5.326
		C157.78,217.583,168.291,197.926,214.835,206.496C214.835,206.496,168.291,197.926,214.835,206.496L214.835,206.496z"/>
	<path id="path27" d="M120.923,225.228c15.563-6.963,30.442,0.411,38.086,7.779c0.318-3.055,2.867-30.577,52.047-22.488
		c-18.584,18.311-44.1,29.609-72.25,29.609c-17.291,0-32.903-4.124-47.209-11.656C94.303,223.316,110.411,217.308,120.923,225.228
		C120.923,225.228,110.411,217.308,120.923,225.228L120.923,225.228z"/>
	<path id="path29" d="M159.555,36.314c-6.704-1.371-13.643-2.092-20.749-2.092c-56.859,0-102.954,46.096-102.954,102.953
		c0,9.287,1.229,18.287,3.534,26.843c3.314-33.122,22.973-57.694,33.347-69.161C84.661,81.675,121.875,50.397,159.555,36.314
		C159.555,36.314,121.875,50.397,159.555,36.314L159.555,36.314L159.555,36.314z"/>
	<path id="path31" d="M146.45,170.759c-4.368-14.195-9.282-53.513,52.421-110.849l-40.954,110.849H146.45L146.45,170.759z"/>
	<path id="path33" d="M165.563,170.759c1.909-9.008,26.483-12.014,70.985-2.184l-0.272,2.184H165.563L165.563,170.759z"/>
	<path id="path35" d="M45.158,170.759c2.457-10.102,19.384-12.561,34.128-12.014c14.743,0.547,41.773,4.643,60.61,12.014H45.158
		L45.158,170.759z"/>
	<polygon id="polygon37" points="232.727,179.496 234.365,175.402 42.973,175.402 42.973,175.402 44.339,179.496 	"/>
</g>
<g id="g2226" transform="matrix(0.02083333,0,0,0.02083333,274.95508,268.1958)">
	<g id="g2193" transform="translate(1138.3423,-331.30859)">
		
			<path id="path2185" sodipodi:cy="536.14618" sodipodi:rx="124.41928" sodipodi:ry="173.17725" sodipodi:cx="9.1521416" sodipodi:type="arc" d="
			M-6647.508-5985.972c0,134.158-108.846,243.004-243.051,243.004c-134.252,0-243.051-108.846-243.051-243.004
			c0-134.252,108.798-243.098,243.051-243.098C-6756.354-6229.07-6647.508-6120.225-6647.508-5985.972z"/>
		
			<path id="path2181" sodipodi:cy="452.47937" sodipodi:rx="7.4206352" sodipodi:ry="70.351921" sodipodi:cx="-128.12173" sodipodi:type="arc" fill="#FFFFFF" d="
			M-6688.056-5985.972c0,111.845-90.705,202.503-202.503,202.503c-111.939,0-202.597-90.658-202.597-202.503
			c0-111.846,90.658-202.597,202.597-202.597C-6778.761-6188.569-6688.056-6097.818-6688.056-5985.972z"/>
	</g>
	<path id="path2208" inkscape:connector-curvature="0" d="M-5858.344-6313.812v-130.69l57.657,0.188
		c57.376,0.281,61.595,0.375,76.033,2.157c22.031,2.813,35.204,8.531,47.11,20.438c6,6.094,10.032,11.813,13.735,19.594
		c4.875,10.313,6.563,17.906,6.563,28.875c-0.047,18.563-6.609,34.969-19.641,48.844c-13.406,14.25-28.594,21.375-51.469,24.188
		l-3.094,0.375l5.907,2.906c10.219,5.063,14.625,8.719,24.703,20.344c9.563,11.156,18.985,24.657,34.548,49.688
		c5.672,9.188,13.734,22.125,17.906,28.875c4.219,6.656,8.016,12.75,8.531,13.5l0.891,1.406h-25.782h-25.782l-3.422-6.281
		c-1.922-3.375-4.359-7.594-5.344-9.469c-1.079-1.782-3.047-5.344-4.407-7.875c-18.281-32.344-21-37.125-28.641-48.563
		c-12.047-18.094-22.125-28.782-31.5-33.563c-8.063-4.032-15.938-5.157-36.844-5.157h-15.609v55.407v55.501h-21h-21.047V-6313.812z"
		/>
	<path id="path2170" inkscape:connector-curvature="0" fill="#FFFFFF" d="M-5744.389-6331.063c11.156-1.406,16.969-3,23.766-6.281
		c2.906-1.313,4.688-2.719,7.875-5.813c7.266-7.406,10.313-14.344,10.734-24.938c0.234-5.156,0.094-6.75-0.797-10.313
		c-2.672-10.782-9.047-18.938-18.797-23.719c-6-3-10.688-4.406-19.454-5.531c-4.875-0.656-12.891-0.844-40.641-1.031l-34.594-0.281
		v39.657v39.563l33.047-0.281C-5757.327-6330.219-5748.983-6330.406-5744.389-6331.063z"/>
</g>
</svg>
